<?xml version="1.0" standalone="no"?>
<!DOCTYPE svg PUBLIC "-//W3C//DTD SVG 20010904//EN"
 "http://www.w3.org/TR/2001/REC-SVG-20010904/DTD/svg10.dtd">
<svg version="1.0" xmlns="http://www.w3.org/2000/svg"
 width="500.000000pt" height="500.000000pt" viewBox="0 0 500.000000 500.000000"
 preserveAspectRatio="xMidYMid meet">
<metadata>
Created by potrace 1.14, written by Peter Selinger 2001-2017
</metadata>
<g transform="translate(0.000000,500.000000) scale(0.100000,-0.100000)"
fill="#000000" stroke="none">
<path d="M2105 4948 c-2 -7 -18 -82 -35 -165 -40 -198 -43 -283 -16 -426 14
-77 76 -218 113 -259 9 -10 13 -18 9 -18 -4 0 3 -10 16 -23 13 -13 34 -39 48
-57 22 -30 69 -77 199 -199 20 -19 38 -33 41 -33 3 1 12 -4 20 -11 21 -17 103
-79 130 -97 12 -8 28 -21 36 -27 7 -7 15 -13 19 -13 4 0 13 -6 20 -12 29 -26
44 -38 49 -38 12 0 195 -138 280 -210 89 -77 165 -184 182 -256 3 -16 6 -71 7
-121 0 -92 0 -93 -37 -135 -20 -24 -62 -74 -94 -113 -31 -38 -65 -79 -74 -89
-10 -11 -18 -26 -18 -35 0 -8 -3 -11 -7 -8 -6 7 -73 -96 -73 -114 0 -5 -4 -9
-10 -9 -5 0 -10 -7 -10 -16 0 -9 -9 -29 -21 -45 -11 -16 -17 -29 -13 -29 3 0
1 -6 -5 -14 -7 -8 -14 -22 -16 -32 -2 -11 -11 -43 -19 -73 -22 -79 -37 -229
-26 -261 1 -3 3 -27 6 -55 2 -27 13 -83 24 -123 25 -89 25 -91 0 -85 -11 3
-20 9 -20 14 0 5 -9 9 -20 9 -11 0 -20 3 -20 8 0 4 -20 18 -45 31 -25 13 -45
28 -45 32 0 5 -5 9 -11 9 -14 0 -141 104 -209 172 -78 78 -132 138 -123 138 4
0 0 6 -9 13 -9 6 -32 37 -52 67 -20 30 -39 60 -43 65 -5 6 -17 28 -28 50 -11
22 -22 42 -25 45 -5 4 -25 47 -75 165 -12 27 -35 93 -41 120 -2 6 -10 35 -18
65 -8 30 -17 73 -21 95 -3 22 -10 61 -14 86 -9 53 -6 356 4 409 3 19 8 49 10
65 10 65 49 205 57 205 5 0 7 4 4 9 -4 5 10 4 29 -2 19 -6 35 -14 35 -19 0 -5
4 -7 9 -4 11 7 140 -74 209 -131 91 -76 152 -151 236 -292 43 -73 80 -130 82
-128 2 2 -6 33 -19 68 -13 35 -24 67 -25 72 -14 74 -95 255 -132 295 -12 12
-18 22 -14 22 3 0 -9 17 -26 38 -134 154 -223 228 -354 292 -81 40 -154 60
-141 40 3 -5 2 -10 -3 -10 -8 0 -35 -53 -47 -90 -3 -11 -17 -46 -25 -65 -18
-43 -60 -178 -60 -194 0 -10 -3 -21 -7 -24 -3 -4 -8 -21 -10 -39 -3 -31 -4
-38 -18 -108 -11 -58 -13 -99 -14 -227 l-1 -122 -27 9 c-16 4 -55 18 -88 31
-33 13 -64 24 -70 25 -5 1 -29 7 -51 13 -57 15 -130 31 -179 37 -22 3 -56 9
-75 12 -19 4 -62 7 -95 7 l-60 0 -11 -75 c-14 -105 -10 -289 10 -385 8 -40 28
-110 34 -120 4 -5 7 -14 7 -20 0 -16 38 -107 62 -150 12 -22 30 -53 39 -70 9
-16 37 -57 62 -90 52 -68 61 -99 28 -101 -23 -1 -52 -8 -76 -17 -8 -3 -46 -16
-83 -29 -37 -12 -79 -32 -94 -44 l-26 -20 38 -69 c20 -38 50 -89 66 -112 16
-23 29 -46 29 -51 0 -6 3 -12 8 -14 4 -1 24 -25 44 -53 53 -72 223 -232 309
-290 41 -27 80 -56 87 -63 8 -7 17 -10 22 -7 5 3 10 1 12 -3 5 -13 140 -75
238 -110 147 -52 287 -74 465 -75 197 -2 367 28 564 97 24 9 47 13 52 10 5 -3
-7 -22 -25 -42 -46 -50 -66 -73 -96 -112 -13 -17 -40 -48 -58 -68 -19 -20 -53
-61 -76 -91 -22 -31 -44 -57 -48 -59 -5 -2 -8 -10 -8 -17 0 -7 -4 -15 -8 -17
-11 -4 -74 -113 -101 -174 -29 -64 -35 -97 -34 -179 0 -68 26 -155 46 -155 4
0 6 -4 3 -9 -3 -4 18 -33 47 -62 56 -57 127 -120 127 -113 0 3 6 0 13 -6 19
-17 232 -138 235 -135 2 2 -42 49 -97 105 -56 55 -99 105 -96 109 2 5 -1 14
-9 20 -31 26 -42 157 -21 247 18 76 66 186 119 269 20 30 36 60 36 65 0 6 3
10 8 10 4 0 16 16 26 35 10 19 26 42 35 52 9 10 28 34 41 53 30 43 49 67 73
92 9 10 17 21 17 24 0 4 12 21 28 38 15 18 39 48 54 67 56 71 74 94 121 151
26 32 44 58 40 58 -4 0 -3 4 3 8 16 10 153 198 166 227 6 14 15 25 19 25 4 0
11 9 14 20 3 11 12 26 18 32 7 7 30 47 51 88 21 41 41 82 46 90 23 42 59 143
54 151 -3 5 -1 9 4 9 7 0 32 87 49 170 6 28 4 215 -2 240 -3 14 -8 35 -11 48
-17 84 -98 251 -147 306 -10 12 -25 33 -33 49 -8 15 -19 27 -24 27 -24 0 -12
40 24 85 23 28 44 55 49 60 4 6 19 24 32 40 14 17 25 35 25 42 0 6 4 13 9 15
8 3 94 164 96 178 0 3 4 11 8 18 5 6 6 12 4 12 -3 0 1 19 8 43 18 60 11 190
-13 259 -12 32 -35 78 -52 102 -44 65 -169 185 -226 219 -17 9 -11 -4 31 -83
16 -30 29 -57 30 -60 0 -3 9 -30 20 -60 25 -75 26 -208 1 -295 -1 -5 -10 -27
-19 -49 -9 -21 -17 -42 -17 -47 0 -5 -3 -9 -8 -9 -4 0 -13 -15 -21 -32 -8 -18
-17 -35 -21 -38 -3 -3 -26 -32 -50 -64 -47 -65 -68 -90 -118 -145 -78 -85
-145 -151 -148 -148 -2 2 4 36 14 76 18 69 20 141 7 224 -7 51 -59 156 -96
197 -16 17 -29 34 -29 38 0 3 -38 43 -85 89 -47 46 -85 81 -85 78 0 -3 -11 5
-25 17 -58 52 -65 58 -72 58 -5 0 -24 14 -43 30 -45 38 -46 39 -100 75 -25 17
-49 35 -55 41 -5 6 -26 21 -45 34 -42 28 -180 140 -234 189 -92 85 -196 207
-196 230 0 6 -4 11 -9 11 -5 0 -14 15 -22 33 -7 17 -16 34 -19 37 -12 10 -41
93 -53 154 -8 36 -12 130 -12 229 1 92 0 167 -2 167 -2 0 -6 -6 -8 -12z m-720
-2003 c11 -1 27 -5 35 -8 8 -2 33 -10 55 -16 22 -6 65 -19 95 -28 30 -10 58
-16 63 -15 4 1 7 -2 7 -6 0 -5 6 -9 13 -10 43 -4 153 -56 165 -79 5 -10 12
-34 15 -54 4 -36 16 -74 49 -169 37 -102 60 -155 108 -247 28 -54 44 -95 39
-99 -6 -3 -29 -7 -52 -9 -151 -10 -218 -17 -262 -25 -114 -21 -126 -20 -154 9
-46 48 -91 100 -91 106 0 4 -14 27 -31 51 -17 25 -44 75 -60 112 -17 37 -35
77 -41 89 -6 13 -9 26 -5 29 3 4 0 18 -7 33 -8 14 -17 43 -20 65 -4 21 -9 42
-12 47 -3 5 -7 51 -9 102 -2 51 -4 97 -5 102 -7 35 -7 35 105 20z m2224 -58
c5 -13 11 -37 14 -54 3 -17 10 -40 16 -52 7 -11 13 -39 16 -61 2 -22 6 -43 9
-48 7 -12 18 -128 18 -197 -1 -68 -16 -220 -22 -220 -1 0 -3 -7 -5 -15 -14
-69 -85 -267 -105 -295 -5 -5 -22 -37 -40 -70 -32 -60 -139 -228 -161 -254 -7
-7 -26 -32 -44 -55 -30 -40 -44 -57 -87 -108 -10 -12 -18 -26 -18 -31 0 -6 -3
-7 -6 -4 -4 4 -22 -14 -41 -38 -30 -40 -60 -57 -115 -66 -4 0 -31 -7 -60 -15
-212 -59 -466 -76 -638 -44 -36 7 -74 13 -85 15 -78 9 -340 104 -356 128 -3 5
-10 9 -15 10 -21 2 -64 22 -64 29 0 4 -4 8 -9 8 -10 0 -96 55 -117 75 -7 5
-31 26 -55 45 -82 65 -235 230 -251 269 -3 9 -16 26 -27 39 -12 12 -19 22 -16
22 3 0 -2 11 -11 25 -9 14 -14 25 -12 25 3 0 52 12 109 26 57 14 118 28 134
30 17 2 41 6 55 8 43 9 113 18 165 21 28 2 50 5 50 5 0 5 59 10 175 16 l135 6
52 -60 c80 -91 183 -189 258 -245 81 -60 112 -81 178 -121 43 -26 88 -51 100
-56 12 -4 40 -16 62 -26 22 -10 42 -18 45 -19 3 -1 12 -5 20 -8 34 -15 136
-49 155 -52 11 -2 28 -7 39 -11 21 -8 20 0 -8 153 -9 44 -18 104 -20 133 -2
28 -6 54 -10 57 -3 3 -1 14 5 24 5 11 6 19 1 19 -10 0 -8 214 3 280 19 125 98
307 160 373 18 19 31 37 29 40 -4 4 296 309 347 354 22 19 39 15 48 -10z"/>
<path d="M3073 4445 c-96 -22 -177 -86 -220 -175 -22 -45 -23 -52 -27 -130 -2
-36 1 -71 7 -77 5 -7 7 -13 3 -13 -10 0 34 -81 66 -122 16 -21 35 -38 42 -38
6 0 18 -9 26 -20 8 -11 22 -20 30 -20 9 0 20 -4 25 -9 11 -11 96 -25 135 -23
43 3 120 24 120 33 0 5 6 9 13 9 11 0 91 73 123 112 20 25 44 111 44 157 0 89
-27 155 -91 221 -32 33 -62 61 -66 61 -4 1 -24 8 -43 16 -54 23 -131 30 -187
18z"/>
</g>
</svg>
